<svg width="138" height="56" viewBox="0 0 138 56" fill="none" xmlns="http://www.w3.org/2000/svg">
<path d="M57.5097 32C57.407 32 57.323 31.9673 57.2577 31.902C57.1924 31.8367 57.1597 31.7527 57.1597 31.65V22.55C57.1597 22.4473 57.1924 22.3633 57.2577 22.298C57.323 22.2327 57.407 22.2 57.5097 22.2H61.1497C62.0644 22.2 62.8437 22.3493 63.4877 22.648C64.1317 22.9373 64.6264 23.3667 64.9717 23.936C65.317 24.496 65.5037 25.1913 65.5317 26.022C65.541 26.4327 65.5457 26.792 65.5457 27.1C65.5457 27.408 65.541 27.7627 65.5317 28.164C65.4944 29.032 65.3077 29.7507 64.9717 30.32C64.645 30.8893 64.1644 31.314 63.5297 31.594C62.9044 31.8647 62.1344 32 61.2197 32H57.5097ZM59.6657 29.984H61.1497C61.551 29.984 61.8824 29.9233 62.1437 29.802C62.4144 29.6713 62.615 29.4707 62.7457 29.2C62.8857 28.9293 62.9604 28.5747 62.9697 28.136C62.9884 27.8653 62.9977 27.6227 62.9977 27.408C63.007 27.1933 63.007 26.9787 62.9977 26.764C62.9977 26.5493 62.9884 26.3113 62.9697 26.05C62.951 25.4153 62.783 24.9533 62.4657 24.664C62.1577 24.3653 61.6957 24.216 61.0797 24.216H59.6657V29.984ZM69.2112 32.14C68.7072 32.14 68.2545 32.0467 67.8532 31.86C67.4612 31.664 67.1485 31.4027 66.9152 31.076C66.6818 30.7493 66.5652 30.3807 66.5652 29.97C66.5652 29.3073 66.8358 28.7847 67.3772 28.402C67.9185 28.01 68.6372 27.744 69.5332 27.604L71.2832 27.338V27.142C71.2832 26.806 71.2132 26.5493 71.0732 26.372C70.9332 26.1947 70.6765 26.106 70.3032 26.106C70.0418 26.106 69.8272 26.1573 69.6592 26.26C69.5005 26.3627 69.3745 26.5027 69.2812 26.68C69.1972 26.8013 69.0805 26.862 68.9312 26.862H67.3632C67.2605 26.862 67.1812 26.834 67.1252 26.778C67.0692 26.7127 67.0458 26.638 67.0552 26.554C67.0552 26.386 67.1158 26.1947 67.2372 25.98C67.3678 25.756 67.5638 25.5367 67.8252 25.322C68.0865 25.1073 68.4225 24.93 68.8332 24.79C69.2438 24.65 69.7385 24.58 70.3172 24.58C70.9238 24.58 71.4418 24.65 71.8712 24.79C72.3005 24.93 72.6458 25.126 72.9072 25.378C73.1778 25.63 73.3785 25.9287 73.5092 26.274C73.6398 26.61 73.7052 26.9833 73.7052 27.394V31.65C73.7052 31.7527 73.6678 31.8367 73.5932 31.902C73.5278 31.9673 73.4485 32 73.3552 32H71.7312C71.6285 32 71.5445 31.9673 71.4792 31.902C71.4138 31.8367 71.3812 31.7527 71.3812 31.65V31.16C71.2598 31.3373 71.0965 31.5007 70.8912 31.65C70.6858 31.7993 70.4432 31.916 70.1632 32C69.8925 32.0933 69.5752 32.14 69.2112 32.14ZM69.8692 30.544C70.1398 30.544 70.3825 30.488 70.5972 30.376C70.8212 30.2547 70.9938 30.0727 71.1152 29.83C71.2458 29.578 71.3112 29.2653 71.3112 28.892V28.696L70.1212 28.906C69.6825 28.9807 69.3605 29.0973 69.1552 29.256C68.9592 29.4053 68.8612 29.5827 68.8612 29.788C68.8612 29.9467 68.9078 30.082 69.0012 30.194C69.0945 30.306 69.2158 30.3947 69.3652 30.46C69.5145 30.516 69.6825 30.544 69.8692 30.544ZM75.635 32C75.5323 32 75.4483 31.9673 75.383 31.902C75.3177 31.8367 75.285 31.7527 75.285 31.65V25.07C75.285 24.9673 75.3177 24.8833 75.383 24.818C75.4483 24.7527 75.5323 24.72 75.635 24.72H77.245C77.3477 24.72 77.4317 24.7527 77.497 24.818C77.5623 24.8833 77.595 24.9673 77.595 25.07V25.602C77.8377 25.3127 78.155 25.07 78.547 24.874C78.939 24.678 79.401 24.58 79.933 24.58C80.4743 24.58 80.9503 24.7013 81.361 24.944C81.781 25.1867 82.1077 25.546 82.341 26.022C82.5837 26.4887 82.705 27.0627 82.705 27.744V31.65C82.705 31.7527 82.6677 31.8367 82.593 31.902C82.5277 31.9673 82.4483 32 82.355 32H80.591C80.4977 32 80.4137 31.9673 80.339 31.902C80.2737 31.8367 80.241 31.7527 80.241 31.65V27.828C80.241 27.3893 80.1337 27.0533 79.919 26.82C79.7137 26.5773 79.4057 26.456 78.995 26.456C78.6123 26.456 78.3043 26.5773 78.071 26.82C77.847 27.0533 77.735 27.3893 77.735 27.828V31.65C77.735 31.7527 77.6977 31.8367 77.623 31.902C77.5577 31.9673 77.4783 32 77.385 32H75.635ZM84.6174 32C84.5147 32 84.4307 31.9673 84.3654 31.902C84.3001 31.8367 84.2674 31.7527 84.2674 31.65V25.07C84.2674 24.9673 84.3001 24.8833 84.3654 24.818C84.4307 24.7527 84.5147 24.72 84.6174 24.72H86.2694C86.3627 24.72 86.4421 24.7527 86.5074 24.818C86.5821 24.8833 86.6194 24.9673 86.6194 25.07V31.65C86.6194 31.7527 86.5821 31.8367 86.5074 31.902C86.4421 31.9673 86.3627 32 86.2694 32H84.6174ZM84.6034 23.67C84.5007 23.67 84.4167 23.6373 84.3514 23.572C84.2861 23.5067 84.2534 23.4227 84.2534 23.32V22.074C84.2534 21.9713 84.2861 21.8873 84.3514 21.822C84.4167 21.7473 84.5007 21.71 84.6034 21.71H86.2694C86.3721 21.71 86.4561 21.7473 86.5214 21.822C86.5961 21.8873 86.6334 21.9713 86.6334 22.074V23.32C86.6334 23.4227 86.5961 23.5067 86.5214 23.572C86.4561 23.6373 86.3721 23.67 86.2694 23.67H84.6034ZM91.688 32.14C90.5866 32.14 89.7093 31.8413 89.056 31.244C88.4026 30.6467 88.062 29.76 88.034 28.584C88.034 28.5187 88.034 28.4347 88.034 28.332C88.034 28.2293 88.034 28.15 88.034 28.094C88.062 27.3567 88.2253 26.7267 88.524 26.204C88.832 25.672 89.252 25.2707 89.784 25C90.3253 24.72 90.9553 24.58 91.674 24.58C92.4953 24.58 93.172 24.7433 93.704 25.07C94.2453 25.3967 94.6513 25.84 94.922 26.4C95.1926 26.96 95.328 27.5993 95.328 28.318V28.654C95.328 28.7567 95.2906 28.8407 95.216 28.906C95.1506 28.9713 95.0713 29.004 94.978 29.004H90.498C90.498 29.0133 90.498 29.0273 90.498 29.046C90.498 29.0647 90.498 29.0833 90.498 29.102C90.5073 29.3727 90.554 29.62 90.638 29.844C90.722 30.068 90.8526 30.2453 91.03 30.376C91.2073 30.5067 91.422 30.572 91.674 30.572C91.8606 30.572 92.0146 30.544 92.136 30.488C92.2666 30.4227 92.374 30.3527 92.458 30.278C92.542 30.194 92.6073 30.124 92.654 30.068C92.738 29.9747 92.8033 29.9187 92.85 29.9C92.906 29.872 92.99 29.858 93.102 29.858H94.838C94.9313 29.858 95.006 29.886 95.062 29.942C95.1273 29.9887 95.1553 30.0587 95.146 30.152C95.1366 30.3107 95.0573 30.502 94.908 30.726C94.7586 30.95 94.5393 31.174 94.25 31.398C93.97 31.6127 93.6153 31.79 93.186 31.93C92.7566 32.07 92.2573 32.14 91.688 32.14ZM90.498 27.618H92.864V27.59C92.864 27.2913 92.8173 27.03 92.724 26.806C92.64 26.582 92.5046 26.4093 92.318 26.288C92.1406 26.1667 91.926 26.106 91.674 26.106C91.422 26.106 91.2073 26.1667 91.03 26.288C90.862 26.4093 90.7313 26.582 90.638 26.806C90.5446 27.03 90.498 27.2913 90.498 27.59V27.618ZM96.9905 32C96.8878 32 96.8038 31.9673 96.7385 31.902C96.6731 31.8367 96.6405 31.7527 96.6405 31.65V22.41C96.6405 22.3073 96.6731 22.2233 96.7385 22.158C96.8038 22.0927 96.8878 22.06 96.9905 22.06H98.6425C98.7451 22.06 98.8291 22.0927 98.8945 22.158C98.9598 22.2233 98.9925 22.3073 98.9925 22.41V31.65C98.9925 31.7527 98.9598 31.8367 98.8945 31.902C98.8291 31.9673 98.7451 32 98.6425 32H96.9905Z" fill="white"/>
<path d="M116 27.75C116 28.1147 116.145 28.4644 116.403 28.7223C116.661 28.9801 117.01 29.125 117.375 29.125H127.811L124.649 32.2738C124.52 32.4016 124.418 32.5536 124.348 32.7212C124.278 32.8888 124.242 33.0685 124.242 33.25C124.242 33.4315 124.278 33.6112 124.348 33.7788C124.418 33.9464 124.52 34.0984 124.649 34.2262C124.777 34.3551 124.929 34.4574 125.096 34.5272C125.264 34.597 125.443 34.633 125.625 34.633C125.807 34.633 125.986 34.597 126.154 34.5272C126.321 34.4574 126.473 34.3551 126.601 34.2262L132.101 28.7262C132.226 28.5955 132.325 28.4413 132.39 28.2725C132.528 27.9377 132.528 27.5623 132.39 27.2275C132.325 27.0587 132.226 26.9045 132.101 26.7738L126.601 21.2737C126.473 21.1455 126.321 21.0439 126.153 20.9745C125.986 20.9051 125.806 20.8694 125.625 20.8694C125.444 20.8694 125.264 20.9051 125.097 20.9745C124.929 21.0439 124.777 21.1455 124.649 21.2737C124.521 21.402 124.419 21.5542 124.349 21.7217C124.28 21.8892 124.244 22.0687 124.244 22.25C124.244 22.4313 124.28 22.6108 124.349 22.7783C124.419 22.9458 124.521 23.098 124.649 23.2262L127.811 26.375H117.375C117.01 26.375 116.661 26.5199 116.403 26.7777C116.145 27.0356 116 27.3853 116 27.75ZM133.875 14H120.125C119.031 14 117.982 14.4346 117.208 15.2082C116.435 15.9818 116 17.031 116 18.125V22.25C116 22.6147 116.145 22.9644 116.403 23.2223C116.661 23.4801 117.01 23.625 117.375 23.625C117.74 23.625 118.089 23.4801 118.347 23.2223C118.605 22.9644 118.75 22.6147 118.75 22.25V18.125C118.75 17.7603 118.895 17.4106 119.153 17.1527C119.411 16.8949 119.76 16.75 120.125 16.75H133.875C134.24 16.75 134.589 16.8949 134.847 17.1527C135.105 17.4106 135.25 17.7603 135.25 18.125V37.375C135.25 37.7397 135.105 38.0894 134.847 38.3473C134.589 38.6051 134.24 38.75 133.875 38.75H120.125C119.76 38.75 119.411 38.6051 119.153 38.3473C118.895 38.0894 118.75 37.7397 118.75 37.375V33.25C118.75 32.8853 118.605 32.5356 118.347 32.2777C118.089 32.0199 117.74 31.875 117.375 31.875C117.01 31.875 116.661 32.0199 116.403 32.2777C116.145 32.5356 116 32.8853 116 33.25V37.375C116 38.469 116.435 39.5182 117.208 40.2918C117.982 41.0654 119.031 41.5 120.125 41.5H133.875C134.969 41.5 136.018 41.0654 136.792 40.2918C137.565 39.5182 138 38.469 138 37.375V18.125C138 17.031 137.565 15.9818 136.792 15.2082C136.018 14.4346 134.969 14 133.875 14Z" fill="white"/>
<path d="M27.9999 48.9125C16.4499 48.9125 7.0874 39.55 7.0874 28C7.0874 16.45 16.4499 7.08752 27.9999 7.08752C39.5499 7.08752 48.9124 16.45 48.9124 28C48.9124 39.55 39.5499 48.9125 27.9999 48.9125ZM27.9999 9.36253C17.7624 9.36253 9.36241 17.7625 9.36241 28C9.36241 38.2375 17.7624 46.6375 27.9999 46.6375C38.2374 46.6375 46.6374 38.2375 46.6374 28C46.6374 17.7625 38.2374 9.36253 27.9999 9.36253Z" fill="white"/>
<path d="M15.7499 43.1375L13.6499 42.175C14.2624 40.6875 16.1874 39.9 18.3749 38.9375C20.4749 37.975 23.0999 36.8375 23.0999 35.4375V33.5125C22.3124 32.9 21.0874 31.5 20.9124 29.4875C20.2999 28.875 19.3374 27.7375 19.3374 26.3375C19.3374 25.4625 19.6874 24.7625 19.9499 24.325C19.7749 23.3625 19.4249 21.4375 19.4249 19.95C19.4249 15.1375 22.7499 11.9875 27.9999 11.9875C29.4874 11.9875 31.3249 12.425 32.2874 13.475C34.6499 13.9125 36.5749 16.7125 36.5749 19.95C36.5749 22.05 36.2249 23.8 35.9624 24.5875C36.2249 25.025 36.4874 25.6375 36.4874 26.3375C36.4874 28 35.6999 29.05 34.9124 29.575C34.7374 31.5875 33.5999 32.9 32.8999 33.5125V35.4375C32.8999 36.6625 35.0874 37.45 37.0999 38.2375C39.4624 39.1125 41.9124 39.9875 42.6999 42L40.5124 42.7875C40.1624 41.7375 38.0624 41.0375 36.3124 40.3375C33.5999 39.375 30.5374 38.2375 30.5374 35.4375V32.2875L31.0624 31.9375C31.1499 31.9375 32.6374 30.8875 32.6374 28.875V28.0875L33.3374 27.825C33.4249 27.7375 34.1249 27.3875 34.1249 26.3375C34.1249 25.9875 33.8624 25.6375 33.7749 25.55L33.3374 25.025L33.5124 24.4125C33.5124 24.4125 34.1249 22.4875 34.1249 19.8625C34.1249 17.675 32.8999 15.6625 31.5874 15.6625H30.8874L30.5374 15.05C30.2749 14.6125 29.2249 14.175 27.8249 14.175C23.8874 14.175 21.5249 16.275 21.5249 19.8625C21.5249 21.525 22.1374 24.2375 22.1374 24.2375L22.3124 24.85L21.8749 25.2875C21.8749 25.2875 21.5249 25.725 21.5249 26.1625C21.5249 26.775 22.3124 27.5625 22.6624 27.9125L23.0999 28.2625V28.875C23.0999 30.8 24.7624 31.85 24.7624 31.85L25.2874 32.2V35.35C25.2874 38.2375 22.0499 39.725 19.1624 40.95C17.9374 41.65 16.0999 42.525 15.7499 43.1375Z" fill="white"/>
</svg>
